M48
; DRILL file {KiCad 8.0.3} date 2025-02-11T21:36:32+0530
; FORMAT={-:-/ absolute / metric / decimal}
; #@! TF.CreationDate,2025-02-11T21:36:32+05:30
; #@! TF.GenerationSoftware,Kicad,Pcbnew,8.0.3
; #@! TF.FileFunction,Plated,1,2,PTH
FMAT,2
METRIC
; #@! TA.AperFunction,Plated,PTH,ComponentDrill
T1C0.762
; #@! TA.AperFunction,Plated,PTH,ViaDrill
T2C0.800
; #@! TA.AperFunction,Plated,PTH,ComponentDrill
T3C0.800
; #@! TA.AperFunction,Plated,PTH,ComponentDrill
T4C0.900
; #@! TA.AperFunction,Plated,PTH,ComponentDrill
T5C0.950
; #@! TA.AperFunction,Plated,PTH,ComponentDrill
T6C1.020
; #@! TA.AperFunction,Plated,PTH,ComponentDrill
T7C1.100
; #@! TA.AperFunction,Plated,PTH,ComponentDrill
T8C1.200
; #@! TA.AperFunction,Plated,PTH,ComponentDrill
T9C1.300
; #@! TA.AperFunction,Plated,PTH,ComponentDrill
T10C1.520
%
G90
G05
T1
X59.8Y-113.4
X59.8Y-115.94
X59.8Y-118.48
X62.34Y-110.86
X62.34Y-113.4
X62.34Y-118.48
T2
X62.3Y-86.5
X62.4Y-92.6
X62.4Y-98.4
X68.6Y-117.1
X68.7Y-124.4
X73.4Y-98.4
X75.2Y-86.6
X75.2Y-92.7
X83.6Y-74.0
X90.5Y-65.4
X97.8Y-97.3
X108.6Y-97.3
T3
X60.7Y-65.3
X60.7Y-68.1
X70.86Y-65.3
X70.86Y-68.1
X73.4Y-105.94
X73.4Y-108.48
X73.4Y-111.02
X73.4Y-113.56
X73.4Y-116.1
X73.4Y-118.64
X79.6Y-113.047
X79.6Y-116.547
X79.8Y-121.847
X79.8Y-125.347
X100.4Y-67.5
X100.4Y-71.0
X103.4Y-104.24
X103.4Y-106.78
X103.4Y-109.32
X103.4Y-111.86
X103.4Y-114.4
X103.4Y-116.94
X103.4Y-119.48
T4
X77.4Y-51.86
X77.4Y-54.4
X88.2Y-51.86
X88.2Y-54.4
X99.0Y-51.86
X99.0Y-54.4
X104.6Y-90.7
X104.6Y-93.24
T5
X63.9Y-52.8
X66.4Y-52.8
X68.9Y-52.8
X71.4Y-52.8
T6
X63.28Y-60.0
X63.28Y-77.78
X65.82Y-60.0
X65.82Y-77.78
X68.36Y-60.0
X70.9Y-60.0
X70.9Y-77.78
X73.44Y-60.0
X73.44Y-77.78
X75.98Y-60.0
X78.52Y-60.0
X78.52Y-77.78
X81.06Y-60.0
X81.06Y-77.78
X83.6Y-60.0
X83.6Y-77.78
X86.14Y-60.0
X86.14Y-77.78
X88.68Y-60.0
X88.68Y-77.78
X91.22Y-60.0
X91.22Y-77.78
X93.76Y-60.0
X93.76Y-77.78
X96.3Y-60.0
X96.3Y-77.78
X98.84Y-60.0
X98.84Y-77.78
X101.38Y-60.0
X101.38Y-77.78
X103.92Y-60.0
X103.92Y-77.78
X106.46Y-60.0
X106.46Y-77.78
X109.0Y-60.0
X109.0Y-77.78
X111.54Y-60.0
X111.54Y-77.78
T7
X81.2Y-83.7
X81.2Y-90.2
X85.7Y-83.7
X85.7Y-90.2
T8
X62.4Y-83.7
X62.4Y-89.65
X62.4Y-95.6
X64.36Y-102.4
X75.1Y-83.7
X75.1Y-89.65
X75.1Y-95.6
X78.1Y-108.2
X79.6Y-102.4
X88.26Y-108.2
T9
X52.795Y-74.7
X52.795Y-79.7
X52.795Y-84.7
X52.795Y-89.7
X52.795Y-94.7
X52.795Y-99.7
T10
X52.8Y-108.52
X52.8Y-113.6
X54.1Y-60.82
X54.1Y-65.9
M30
